
<svg xmlns="http://www.w3.org/2000/svg"
     width="128"
     height="128"
     viewBox="0 0 128 128">

  <rect
    x="0.00"
    y="0.00"
    width="27.50"
    height="27.50"
    rx="6.88"
    fill="#C5C5C5"
  />
  <rect
    x="33.50"
    y="0.00"
    width="27.50"
    height="27.50"
    rx="6.88"
    fill="#C5C5C5"
  />
  <rect
    x="67.00"
    y="0.00"
    width="27.50"
    height="27.50"
    rx="6.88"
    fill="#C5C5C5"
  />
  <rect
    x="100.50"
    y="0.00"
    width="27.50"
    height="27.50"
    rx="6.88"
    fill="#C5C5C5"
  />
  <rect
    x="0.00"
    y="33.50"
    width="27.50"
    height="27.50"
    rx="6.88"
    fill="#C5C5C5"
  />
  <rect
    x="33.50"
    y="33.50"
    width="27.50"
    height="27.50"
    rx="6.88"
    fill="#C5C5C5"
  />
  <rect
    x="67.00"
    y="33.50"
    width="27.50"
    height="27.50"
    rx="6.88"
    fill="#C5C5C5"
  />
  <rect
    x="100.50"
    y="33.50"
    width="27.50"
    height="27.50"
    rx="6.88"
    fill="#C5C5C5"
  />
  <rect
    x="0.00"
    y="67.00"
    width="27.50"
    height="27.50"
    rx="6.88"
    fill="#C5C5C5"
  />
  <rect
    x="33.50"
    y="67.00"
    width="27.50"
    height="27.50"
    rx="6.88"
    fill="#C5C5C5"
  />
  <rect
    x="67.00"
    y="67.00"
    width="27.50"
    height="27.50"
    rx="6.88"
    fill="#C5C5C5"
  />
  <rect
    x="100.50"
    y="67.00"
    width="27.50"
    height="27.50"
    rx="6.88"
    fill="#C5C5C5"
  />
  <rect
    x="0.00"
    y="100.50"
    width="27.50"
    height="27.50"
    rx="6.88"
    fill="#C5C5C5"
  />
  <rect
    x="33.50"
    y="100.50"
    width="27.50"
    height="27.50"
    rx="6.88"
    fill="#C5C5C5"
  />
  <rect
    x="67.00"
    y="100.50"
    width="27.50"
    height="27.50"
    rx="6.88"
    fill="#C5C5C5"
  />
  <rect
    x="100.50"
    y="100.50"
    width="27.50"
    height="27.50"
    rx="6.88"
    fill="#C5C5C5"
  />
</svg>