
<svg xmlns="http://www.w3.org/2000/svg"
     width="128"
     height="128"
     viewBox="0 0 128 128">

  <rect
    x="0.00"
    y="0.00"
    width="20.80"
    height="20.80"
    rx="5.20"
    fill="#C5C5C5"
  />
  <rect
    x="26.80"
    y="0.00"
    width="20.80"
    height="20.80"
    rx="5.20"
    fill="#C5C5C5"
  />
  <rect
    x="53.60"
    y="0.00"
    width="20.80"
    height="20.80"
    rx="5.20"
    fill="#C5C5C5"
  />
  <rect
    x="80.40"
    y="0.00"
    width="20.80"
    height="20.80"
    rx="5.20"
    fill="#C5C5C5"
  />
  <rect
    x="107.20"
    y="0.00"
    width="20.80"
    height="20.80"
    rx="5.20"
    fill="#C5C5C5"
  />
  <rect
    x="0.00"
    y="26.80"
    width="20.80"
    height="20.80"
    rx="5.20"
    fill="#C5C5C5"
  />
  <rect
    x="26.80"
    y="26.80"
    width="20.80"
    height="20.80"
    rx="5.20"
    fill="#C5C5C5"
  />
  <rect
    x="53.60"
    y="26.80"
    width="20.80"
    height="20.80"
    rx="5.20"
    fill="#C5C5C5"
  />
  <rect
    x="80.40"
    y="26.80"
    width="20.80"
    height="20.80"
    rx="5.20"
    fill="#C5C5C5"
  />
  <rect
    x="107.20"
    y="26.80"
    width="20.80"
    height="20.80"
    rx="5.20"
    fill="#C5C5C5"
  />
  <rect
    x="0.00"
    y="53.60"
    width="20.80"
    height="20.80"
    rx="5.20"
    fill="#C5C5C5"
  />
  <rect
    x="26.80"
    y="53.60"
    width="20.80"
    height="20.80"
    rx="5.20"
    fill="#C5C5C5"
  />
  <rect
    x="53.60"
    y="53.60"
    width="20.80"
    height="20.80"
    rx="5.20"
    fill="#C5C5C5"
  />
  <rect
    x="80.40"
    y="53.60"
    width="20.80"
    height="20.80"
    rx="5.20"
    fill="#C5C5C5"
  />
  <rect
    x="107.20"
    y="53.60"
    width="20.80"
    height="20.80"
    rx="5.20"
    fill="#C5C5C5"
  />
  <rect
    x="0.00"
    y="80.40"
    width="20.80"
    height="20.80"
    rx="5.20"
    fill="#C5C5C5"
  />
  <rect
    x="26.80"
    y="80.40"
    width="20.80"
    height="20.80"
    rx="5.20"
    fill="#C5C5C5"
  />
  <rect
    x="53.60"
    y="80.40"
    width="20.80"
    height="20.80"
    rx="5.20"
    fill="#C5C5C5"
  />
  <rect
    x="80.40"
    y="80.40"
    width="20.80"
    height="20.80"
    rx="5.20"
    fill="#C5C5C5"
  />
  <rect
    x="107.20"
    y="80.40"
    width="20.80"
    height="20.80"
    rx="5.20"
    fill="#C5C5C5"
  />
  <rect
    x="0.00"
    y="107.20"
    width="20.80"
    height="20.80"
    rx="5.20"
    fill="#C5C5C5"
  />
  <rect
    x="26.80"
    y="107.20"
    width="20.80"
    height="20.80"
    rx="5.20"
    fill="#C5C5C5"
  />
  <rect
    x="53.60"
    y="107.20"
    width="20.80"
    height="20.80"
    rx="5.20"
    fill="#C5C5C5"
  />
  <rect
    x="80.40"
    y="107.20"
    width="20.80"
    height="20.80"
    rx="5.20"
    fill="#C5C5C5"
  />
  <rect
    x="107.20"
    y="107.20"
    width="20.80"
    height="20.80"
    rx="5.20"
    fill="#C5C5C5"
  />
</svg>