
<svg xmlns="http://www.w3.org/2000/svg"
     width="128"
     height="128"
     viewBox="0 0 128 128">

  <rect
    x="0.00"
    y="0.00"
    width="16.33"
    height="16.33"
    rx="4.08"
    fill="#C5C5C5"
  />
  <rect
    x="22.33"
    y="0.00"
    width="16.33"
    height="16.33"
    rx="4.08"
    fill="#C5C5C5"
  />
  <rect
    x="44.67"
    y="0.00"
    width="16.33"
    height="16.33"
    rx="4.08"
    fill="#C5C5C5"
  />
  <rect
    x="67.00"
    y="0.00"
    width="16.33"
    height="16.33"
    rx="4.08"
    fill="#C5C5C5"
  />
  <rect
    x="89.33"
    y="0.00"
    width="16.33"
    height="16.33"
    rx="4.08"
    fill="#C5C5C5"
  />
  <rect
    x="111.67"
    y="0.00"
    width="16.33"
    height="16.33"
    rx="4.08"
    fill="#C5C5C5"
  />
  <rect
    x="0.00"
    y="22.33"
    width="16.33"
    height="16.33"
    rx="4.08"
    fill="#C5C5C5"
  />
  <rect
    x="22.33"
    y="22.33"
    width="16.33"
    height="16.33"
    rx="4.08"
    fill="#C5C5C5"
  />
  <rect
    x="44.67"
    y="22.33"
    width="16.33"
    height="16.33"
    rx="4.08"
    fill="#C5C5C5"
  />
  <rect
    x="67.00"
    y="22.33"
    width="16.33"
    height="16.33"
    rx="4.08"
    fill="#C5C5C5"
  />
  <rect
    x="89.33"
    y="22.33"
    width="16.33"
    height="16.33"
    rx="4.08"
    fill="#C5C5C5"
  />
  <rect
    x="111.67"
    y="22.33"
    width="16.33"
    height="16.33"
    rx="4.08"
    fill="#C5C5C5"
  />
  <rect
    x="0.00"
    y="44.67"
    width="16.33"
    height="16.33"
    rx="4.08"
    fill="#C5C5C5"
  />
  <rect
    x="22.33"
    y="44.67"
    width="16.33"
    height="16.33"
    rx="4.08"
    fill="#C5C5C5"
  />
  <rect
    x="44.67"
    y="44.67"
    width="16.33"
    height="16.33"
    rx="4.08"
    fill="#C5C5C5"
  />
  <rect
    x="67.00"
    y="44.67"
    width="16.33"
    height="16.33"
    rx="4.08"
    fill="#C5C5C5"
  />
  <rect
    x="89.33"
    y="44.67"
    width="16.33"
    height="16.33"
    rx="4.08"
    fill="#C5C5C5"
  />
  <rect
    x="111.67"
    y="44.67"
    width="16.33"
    height="16.33"
    rx="4.08"
    fill="#C5C5C5"
  />
  <rect
    x="0.00"
    y="67.00"
    width="16.33"
    height="16.33"
    rx="4.08"
    fill="#C5C5C5"
  />
  <rect
    x="22.33"
    y="67.00"
    width="16.33"
    height="16.33"
    rx="4.08"
    fill="#C5C5C5"
  />
  <rect
    x="44.67"
    y="67.00"
    width="16.33"
    height="16.33"
    rx="4.08"
    fill="#C5C5C5"
  />
  <rect
    x="67.00"
    y="67.00"
    width="16.33"
    height="16.33"
    rx="4.08"
    fill="#C5C5C5"
  />
  <rect
    x="89.33"
    y="67.00"
    width="16.33"
    height="16.33"
    rx="4.08"
    fill="#C5C5C5"
  />
  <rect
    x="111.67"
    y="67.00"
    width="16.33"
    height="16.33"
    rx="4.08"
    fill="#C5C5C5"
  />
  <rect
    x="0.00"
    y="89.33"
    width="16.33"
    height="16.33"
    rx="4.08"
    fill="#C5C5C5"
  />
  <rect
    x="22.33"
    y="89.33"
    width="16.33"
    height="16.33"
    rx="4.08"
    fill="#C5C5C5"
  />
  <rect
    x="44.67"
    y="89.33"
    width="16.33"
    height="16.33"
    rx="4.08"
    fill="#C5C5C5"
  />
  <rect
    x="67.00"
    y="89.33"
    width="16.33"
    height="16.33"
    rx="4.08"
    fill="#C5C5C5"
  />
  <rect
    x="89.33"
    y="89.33"
    width="16.33"
    height="16.33"
    rx="4.08"
    fill="#C5C5C5"
  />
  <rect
    x="111.67"
    y="89.33"
    width="16.33"
    height="16.33"
    rx="4.08"
    fill="#C5C5C5"
  />
  <rect
    x="0.00"
    y="111.67"
    width="16.33"
    height="16.33"
    rx="4.08"
    fill="#C5C5C5"
  />
  <rect
    x="22.33"
    y="111.67"
    width="16.33"
    height="16.33"
    rx="4.08"
    fill="#C5C5C5"
  />
  <rect
    x="44.67"
    y="111.67"
    width="16.33"
    height="16.33"
    rx="4.08"
    fill="#C5C5C5"
  />
  <rect
    x="67.00"
    y="111.67"
    width="16.33"
    height="16.33"
    rx="4.08"
    fill="#C5C5C5"
  />
  <rect
    x="89.33"
    y="111.67"
    width="16.33"
    height="16.33"
    rx="4.08"
    fill="#C5C5C5"
  />
  <rect
    x="111.67"
    y="111.67"
    width="16.33"
    height="16.33"
    rx="4.08"
    fill="#C5C5C5"
  />
</svg>