
<svg xmlns="http://www.w3.org/2000/svg"
     width="128"
     height="128"
     viewBox="0 0 128 128">

  <rect
    x="0.00"
    y="0.00"
    width="13.14"
    height="13.14"
    rx="3.29"
    fill="#C5C5C5"
  />
  <rect
    x="19.14"
    y="0.00"
    width="13.14"
    height="13.14"
    rx="3.29"
    fill="#C5C5C5"
  />
  <rect
    x="38.29"
    y="0.00"
    width="13.14"
    height="13.14"
    rx="3.29"
    fill="#C5C5C5"
  />
  <rect
    x="57.43"
    y="0.00"
    width="13.14"
    height="13.14"
    rx="3.29"
    fill="#C5C5C5"
  />
  <rect
    x="76.57"
    y="0.00"
    width="13.14"
    height="13.14"
    rx="3.29"
    fill="#C5C5C5"
  />
  <rect
    x="95.71"
    y="0.00"
    width="13.14"
    height="13.14"
    rx="3.29"
    fill="#C5C5C5"
  />
  <rect
    x="114.86"
    y="0.00"
    width="13.14"
    height="13.14"
    rx="3.29"
    fill="#C5C5C5"
  />
  <rect
    x="0.00"
    y="19.14"
    width="13.14"
    height="13.14"
    rx="3.29"
    fill="#C5C5C5"
  />
  <rect
    x="19.14"
    y="19.14"
    width="13.14"
    height="13.14"
    rx="3.29"
    fill="#C5C5C5"
  />
  <rect
    x="38.29"
    y="19.14"
    width="13.14"
    height="13.14"
    rx="3.29"
    fill="#C5C5C5"
  />
  <rect
    x="57.43"
    y="19.14"
    width="13.14"
    height="13.14"
    rx="3.29"
    fill="#C5C5C5"
  />
  <rect
    x="76.57"
    y="19.14"
    width="13.14"
    height="13.14"
    rx="3.29"
    fill="#C5C5C5"
  />
  <rect
    x="95.71"
    y="19.14"
    width="13.14"
    height="13.14"
    rx="3.29"
    fill="#C5C5C5"
  />
  <rect
    x="114.86"
    y="19.14"
    width="13.14"
    height="13.14"
    rx="3.29"
    fill="#C5C5C5"
  />
  <rect
    x="0.00"
    y="38.29"
    width="13.14"
    height="13.14"
    rx="3.29"
    fill="#C5C5C5"
  />
  <rect
    x="19.14"
    y="38.29"
    width="13.14"
    height="13.14"
    rx="3.29"
    fill="#C5C5C5"
  />
  <rect
    x="38.29"
    y="38.29"
    width="13.14"
    height="13.14"
    rx="3.29"
    fill="#C5C5C5"
  />
  <rect
    x="57.43"
    y="38.29"
    width="13.14"
    height="13.14"
    rx="3.29"
    fill="#C5C5C5"
  />
  <rect
    x="76.57"
    y="38.29"
    width="13.14"
    height="13.14"
    rx="3.29"
    fill="#C5C5C5"
  />
  <rect
    x="95.71"
    y="38.29"
    width="13.14"
    height="13.14"
    rx="3.29"
    fill="#C5C5C5"
  />
  <rect
    x="114.86"
    y="38.29"
    width="13.14"
    height="13.14"
    rx="3.29"
    fill="#C5C5C5"
  />
  <rect
    x="0.00"
    y="57.43"
    width="13.14"
    height="13.14"
    rx="3.29"
    fill="#C5C5C5"
  />
  <rect
    x="19.14"
    y="57.43"
    width="13.14"
    height="13.14"
    rx="3.29"
    fill="#C5C5C5"
  />
  <rect
    x="38.29"
    y="57.43"
    width="13.14"
    height="13.14"
    rx="3.29"
    fill="#C5C5C5"
  />
  <rect
    x="57.43"
    y="57.43"
    width="13.14"
    height="13.14"
    rx="3.29"
    fill="#C5C5C5"
  />
  <rect
    x="76.57"
    y="57.43"
    width="13.14"
    height="13.14"
    rx="3.29"
    fill="#C5C5C5"
  />
  <rect
    x="95.71"
    y="57.43"
    width="13.14"
    height="13.14"
    rx="3.29"
    fill="#C5C5C5"
  />
  <rect
    x="114.86"
    y="57.43"
    width="13.14"
    height="13.14"
    rx="3.29"
    fill="#C5C5C5"
  />
  <rect
    x="0.00"
    y="76.57"
    width="13.14"
    height="13.14"
    rx="3.29"
    fill="#C5C5C5"
  />
  <rect
    x="19.14"
    y="76.57"
    width="13.14"
    height="13.14"
    rx="3.29"
    fill="#C5C5C5"
  />
  <rect
    x="38.29"
    y="76.57"
    width="13.14"
    height="13.14"
    rx="3.29"
    fill="#C5C5C5"
  />
  <rect
    x="57.43"
    y="76.57"
    width="13.14"
    height="13.14"
    rx="3.29"
    fill="#C5C5C5"
  />
  <rect
    x="76.57"
    y="76.57"
    width="13.14"
    height="13.14"
    rx="3.29"
    fill="#C5C5C5"
  />
  <rect
    x="95.71"
    y="76.57"
    width="13.14"
    height="13.14"
    rx="3.29"
    fill="#C5C5C5"
  />
  <rect
    x="114.86"
    y="76.57"
    width="13.14"
    height="13.14"
    rx="3.29"
    fill="#C5C5C5"
  />
  <rect
    x="0.00"
    y="95.71"
    width="13.14"
    height="13.14"
    rx="3.29"
    fill="#C5C5C5"
  />
  <rect
    x="19.14"
    y="95.71"
    width="13.14"
    height="13.14"
    rx="3.29"
    fill="#C5C5C5"
  />
  <rect
    x="38.29"
    y="95.71"
    width="13.14"
    height="13.14"
    rx="3.29"
    fill="#C5C5C5"
  />
  <rect
    x="57.43"
    y="95.71"
    width="13.14"
    height="13.14"
    rx="3.29"
    fill="#C5C5C5"
  />
  <rect
    x="76.57"
    y="95.71"
    width="13.14"
    height="13.14"
    rx="3.29"
    fill="#C5C5C5"
  />
  <rect
    x="95.71"
    y="95.71"
    width="13.14"
    height="13.14"
    rx="3.29"
    fill="#C5C5C5"
  />
  <rect
    x="114.86"
    y="95.71"
    width="13.14"
    height="13.14"
    rx="3.29"
    fill="#C5C5C5"
  />
  <rect
    x="0.00"
    y="114.86"
    width="13.14"
    height="13.14"
    rx="3.29"
    fill="#C5C5C5"
  />
  <rect
    x="19.14"
    y="114.86"
    width="13.14"
    height="13.14"
    rx="3.29"
    fill="#C5C5C5"
  />
  <rect
    x="38.29"
    y="114.86"
    width="13.14"
    height="13.14"
    rx="3.29"
    fill="#C5C5C5"
  />
  <rect
    x="57.43"
    y="114.86"
    width="13.14"
    height="13.14"
    rx="3.29"
    fill="#C5C5C5"
  />
  <rect
    x="76.57"
    y="114.86"
    width="13.14"
    height="13.14"
    rx="3.29"
    fill="#C5C5C5"
  />
  <rect
    x="95.71"
    y="114.86"
    width="13.14"
    height="13.14"
    rx="3.29"
    fill="#C5C5C5"
  />
  <rect
    x="114.86"
    y="114.86"
    width="13.14"
    height="13.14"
    rx="3.29"
    fill="#C5C5C5"
  />
</svg>