<svg xmlns="http://www.w3.org/2000/svg" width="64" height="64" viewBox="0 0 64 64" fill="none">
  <rect x="2" y="2" width="60" height="60" rx="14" fill="#16110d"/>
  <rect x="2" y="2" width="60" height="60" rx="14" fill="url(#g)" opacity="0.06"/>
  <defs>
    <linearGradient id="g" x1="0" y1="0" x2="1" y2="1">
      <stop offset="0%" stop-color="#f472b6"/>
      <stop offset="100%" stop-color="#ec4899"/>
    </linearGradient>
  </defs>
  <rect x="11" y="11" width="13" height="13" rx="2.5" fill="#A5D6A7"/>
  <rect x="26" y="11" width="13" height="13" rx="2.5" fill="#EF9A9A"/>
  <rect x="41" y="11" width="13" height="13" rx="2.5" fill="#90CAF9"/>
  <rect x="11" y="26" width="13" height="13" rx="2.5" fill="#FFCC80"/>
  <rect x="26" y="26" width="13" height="13" rx="2.5" fill="#FBFBFB"/>
  <rect x="41" y="26" width="13" height="13" rx="2.5" fill="#FFF59D"/>
  <rect x="11" y="41" width="13" height="13" rx="2.5" fill="#CE93D8"/>
  <rect x="26" y="41" width="13" height="13" rx="2.5" fill="#80CBC4"/>
  <rect x="41" y="41" width="13" height="13" rx="2.5" fill="#F48FB1"/>
</svg>
